<mxfile host="app.diagrams.net" agent="Mozilla/5.0 (Windows NT 10.0; Win64; x64) AppleWebKit/537.36 (KHTML, like Gecko) Chrome/134.0.0.0 Safari/537.36" version="26.1.1">
  <diagram name="Page-1" id="8ce9d11a-91a2-4d17-14d8-a56ed91bf033">
    <mxGraphModel dx="1050" dy="522" grid="1" gridSize="10" guides="1" tooltips="1" connect="1" arrows="1" fold="1" page="1" pageScale="1" pageWidth="1100" pageHeight="850" background="none" math="0" shadow="0">
      <root>
        <mxCell id="0" />
        <mxCell id="1" parent="0" />
        <mxCell id="17ea667e15c223fc-2" value="Vault Service" style="rounded=1;whiteSpace=wrap;html=1;shadow=0;labelBackgroundColor=none;strokeWidth=1;fontFamily=Verdana;fontSize=12;align=center;" parent="1" vertex="1">
          <mxGeometry x="218" y="41" width="142" height="39" as="geometry" />
        </mxCell>
        <mxCell id="17ea667e15c223fc-7" value="Data Consumer Service&lt;div&gt;(Reads vault data)&lt;/div&gt;" style="rounded=1;whiteSpace=wrap;html=1;shadow=0;labelBackgroundColor=none;strokeWidth=1;fontFamily=Verdana;fontSize=12;align=center;" parent="1" vertex="1">
          <mxGeometry x="219" y="130" width="141" height="70" as="geometry" />
        </mxCell>
        <mxCell id="17ea667e15c223fc-8" value="Fee Calculator Service&lt;div&gt;(Computes transaction fees)&lt;/div&gt;" style="rounded=1;whiteSpace=wrap;html=1;shadow=0;labelBackgroundColor=none;strokeWidth=1;fontFamily=Verdana;fontSize=12;align=center;" parent="1" vertex="1">
          <mxGeometry x="219" y="255" width="141" height="72" as="geometry" />
        </mxCell>
        <mxCell id="cMoWUm6GPoaCTaX2YTEq-3" value="vault data" style="text;html=1;align=center;verticalAlign=middle;whiteSpace=wrap;rounded=0;" vertex="1" parent="1">
          <mxGeometry x="295" y="90" width="60" height="30" as="geometry" />
        </mxCell>
        <mxCell id="cMoWUm6GPoaCTaX2YTEq-4" value="transaction data" style="text;html=1;align=center;verticalAlign=middle;whiteSpace=wrap;rounded=0;" vertex="1" parent="1">
          <mxGeometry x="295" y="213" width="60" height="30" as="geometry" />
        </mxCell>
        <mxCell id="cMoWUm6GPoaCTaX2YTEq-6" style="edgeStyle=orthogonalEdgeStyle;rounded=0;orthogonalLoop=1;jettySize=auto;html=1;exitX=0;exitY=0.75;exitDx=0;exitDy=0;" edge="1" parent="1">
          <mxGeometry relative="1" as="geometry">
            <mxPoint x="270" y="218" as="targetPoint" />
            <mxPoint x="270" y="218" as="sourcePoint" />
          </mxGeometry>
        </mxCell>
        <mxCell id="cMoWUm6GPoaCTaX2YTEq-7" style="edgeStyle=orthogonalEdgeStyle;rounded=1;html=1;labelBackgroundColor=none;startArrow=none;startFill=0;startSize=5;endArrow=classicThin;endFill=1;endSize=5;jettySize=auto;orthogonalLoop=1;strokeWidth=1;fontFamily=Verdana;fontSize=8;exitX=0.5;exitY=1;exitDx=0;exitDy=0;" edge="1" parent="1">
          <mxGeometry relative="1" as="geometry">
            <mxPoint x="290" y="82" as="sourcePoint" />
            <mxPoint x="290" y="130" as="targetPoint" />
          </mxGeometry>
        </mxCell>
        <mxCell id="cMoWUm6GPoaCTaX2YTEq-12" value="" style="shape=cylinder3;whiteSpace=wrap;html=1;boundedLbl=1;backgroundOutline=1;size=15;" vertex="1" parent="1">
          <mxGeometry x="472" y="255" width="88" height="72" as="geometry" />
        </mxCell>
        <mxCell id="cMoWUm6GPoaCTaX2YTEq-13" value="Database" style="text;html=1;align=center;verticalAlign=middle;whiteSpace=wrap;rounded=0;" vertex="1" parent="1">
          <mxGeometry x="486" y="290" width="60" height="30" as="geometry" />
        </mxCell>
        <mxCell id="cMoWUm6GPoaCTaX2YTEq-15" value="" style="endArrow=classic;html=1;rounded=0;" edge="1" parent="1" target="17ea667e15c223fc-8">
          <mxGeometry width="50" height="50" relative="1" as="geometry">
            <mxPoint x="290" y="199" as="sourcePoint" />
            <mxPoint x="340" y="149" as="targetPoint" />
          </mxGeometry>
        </mxCell>
        <mxCell id="cMoWUm6GPoaCTaX2YTEq-16" value="" style="endArrow=classic;html=1;rounded=0;" edge="1" parent="1">
          <mxGeometry width="50" height="50" relative="1" as="geometry">
            <mxPoint x="360" y="300" as="sourcePoint" />
            <mxPoint x="470" y="300" as="targetPoint" />
          </mxGeometry>
        </mxCell>
        <mxCell id="cMoWUm6GPoaCTaX2YTEq-17" value="store data&lt;div&gt;&lt;br&gt;&lt;/div&gt;" style="text;html=1;align=center;verticalAlign=middle;whiteSpace=wrap;rounded=0;" vertex="1" parent="1">
          <mxGeometry x="382" y="307" width="60" height="30" as="geometry" />
        </mxCell>
      </root>
    </mxGraphModel>
  </diagram>
</mxfile>
